<svg xmlns="http://www.w3.org/2000/svg" width="208" height="105" fill="none"><path fill="#fff" d="M135.668 103.464v-6.4l23.424-32.704h-22.528v-6.336h30.72v6.4l-23.552 32.704h24.256v6.336zm-12.695 0v-45.44h6.912v45.44zm-24.191 0V64.36H84.83v-6.336h34.816v6.336h-13.952v39.104zm-50.249 0v-45.44h18.112q4.865 0 8.384 1.664 3.52 1.665 5.44 4.736 1.92 3.072 1.92 7.296 0 3.072-1.408 5.504a10.7 10.7 0 0 1-3.648 3.904q-2.24 1.408-4.8 1.6l-.32-.576q4.289 0 6.656 1.984 2.368 1.92 2.752 6.08l1.216 13.248h-6.976l-1.088-12.352q-.191-2.752-1.856-4.032-1.664-1.344-5.44-1.344H55.445v17.728zM55.445 79.4h11.328q3.904 0 6.144-1.92 2.304-1.984 2.304-5.568 0-3.648-2.304-5.568-2.304-1.984-6.72-1.984H55.445zm-34.261 25.088q-6.592 0-11.328-2.816-4.736-2.88-7.296-8.192T0 80.808t2.56-12.672q2.56-5.376 7.296-8.256T21.184 57q6.656 0 11.392 2.88 4.8 2.88 7.296 8.256 2.56 5.311 2.56 12.672 0 7.36-2.56 12.672-2.496 5.312-7.296 8.192-4.736 2.816-11.392 2.816m0-6.336q4.416 0 7.552-2.048 3.2-2.048 4.864-5.888 1.664-3.904 1.664-9.408T33.6 71.4t-4.864-5.952q-3.136-2.112-7.552-2.112-4.351 0-7.488 2.112-3.136 2.048-4.864 5.952-1.665 3.905-1.664 9.408 0 5.504 1.664 9.408 1.728 3.84 4.864 5.888t7.488 2.048m157.667-51.688V1.024h6.912v42.88l-3.648-3.776h25.792v6.336zm-37.721 0V1.024h29.568V7.36h-22.656v13.248h21.888v6.144h-21.888v13.376h23.168v6.336zm-45.693 0 16.384-45.44h8.768l16.384 45.44h-7.36l-4.16-11.84h-18.56l-4.096 11.84zm13.632-18.112h14.272l-7.168-20.736zM58.065 46.464V1.024h18.112q4.865 0 8.384 1.664t5.44 4.736 1.92 7.296q0 3.072-1.408 5.504a10.7 10.7 0 0 1-3.648 3.904q-2.24 1.408-4.8 1.6l-.32-.576q4.29 0 6.656 1.984 2.369 1.92 2.752 6.08l1.216 13.248h-6.976l-1.088-12.352q-.191-2.752-1.856-4.032-1.663-1.344-5.44-1.344H64.977v17.728zM64.977 22.4h11.328q3.904 0 6.144-1.92 2.304-1.984 2.304-5.568 0-3.648-2.304-5.568-2.304-1.984-6.72-1.984H64.977zM34.792 47.488q-5.44 0-9.472-1.984Q21.35 43.52 19.048 40t-2.688-8.192l7.104-.448q.448 3.2 1.856 5.44a9.2 9.2 0 0 0 3.776 3.328q2.431 1.088 5.824 1.088 2.944 0 4.992-.704 2.112-.768 3.2-2.24t1.088-3.584q0-1.92-.96-3.392-.896-1.536-3.52-2.752-2.56-1.28-7.552-2.496-5.44-1.344-8.704-2.944t-4.736-3.968q-1.408-2.431-1.408-5.952 0-3.904 1.856-6.848 1.92-3.008 5.44-4.672T33.064 0q5.184 0 8.832 1.92 3.712 1.92 5.824 5.248 2.175 3.328 2.688 7.616l-7.104.384q-.32-2.624-1.6-4.608a8.46 8.46 0 0 0-3.456-3.136q-2.175-1.152-5.312-1.152-3.968 0-6.272 1.856-2.24 1.793-2.24 4.8 0 1.92.896 3.264.96 1.28 3.328 2.24 2.432.96 6.848 2.048 5.888 1.344 9.344 3.328 3.519 1.92 4.992 4.544t1.472 5.952q0 4.032-2.112 7.04-2.048 2.944-5.76 4.544-3.713 1.6-8.64 1.6M2.688 46.464V1.024H9.6v45.44z"/></svg>